<svg width="27" height="27" viewBox="0 0 27 27" fill="none" xmlns="http://www.w3.org/2000/svg">
<path fill-rule="evenodd" clip-rule="evenodd" d="M6.32344 1.19288C11.0931 0.664183 15.9067 0.664183 20.6764 1.19288C23.3172 1.48888 25.4478 3.56859 25.7577 6.21871C26.3233 11.0559 26.3233 15.9426 25.7577 20.7798C25.6009 22.0675 25.0137 23.2645 24.0914 24.1767C23.1691 25.089 21.9657 25.6629 20.6764 25.8056C15.9067 26.3359 11.093 26.3359 6.32344 25.8056C5.03407 25.6629 3.83068 25.089 2.90837 24.1767C1.98606 23.2645 1.39891 22.0675 1.2421 20.7798C0.676461 15.9431 0.676461 11.0569 1.2421 6.22025C1.39884 4.93276 1.98577 3.73593 2.90777 2.82372C3.82977 1.91152 5.0328 1.3374 6.32189 1.19442L6.32344 1.19288ZM13.4999 5.80246C13.8066 5.80246 14.1006 5.92428 14.3175 6.14112C14.5343 6.35796 14.6561 6.65205 14.6561 6.95871V12.3438H20.0412C20.3478 12.3438 20.6419 12.4656 20.8588 12.6824C21.0756 12.8992 21.1974 13.1933 21.1974 13.5C21.1974 13.8067 21.0756 14.1008 20.8588 14.3176C20.6419 14.5344 20.3478 14.6563 20.0412 14.6563H14.6561V20.0413C14.6561 20.3479 14.5343 20.642 14.3175 20.8589C14.1006 21.0757 13.8066 21.1975 13.4999 21.1975C13.1932 21.1975 12.8991 21.0757 12.6823 20.8589C12.4655 20.642 12.3436 20.3479 12.3436 20.0413V14.6563H6.9586C6.65195 14.6563 6.35785 14.5344 6.14101 14.3176C5.92417 14.1008 5.80235 13.8067 5.80235 13.5C5.80235 13.1933 5.92417 12.8992 6.14101 12.6824C6.35785 12.4656 6.65195 12.3438 6.9586 12.3438H12.3436V6.95871C12.3436 6.65205 12.4655 6.35796 12.6823 6.14112C12.8991 5.92428 13.1932 5.80246 13.4999 5.80246Z" fill="#313131"/>
</svg>
