<svg width="29" height="31" viewBox="0 0 29 31" fill="none" xmlns="http://www.w3.org/2000/svg">
<path d="M28.0568 22.4288C27.2547 21.0471 26.0623 17.1375 26.0623 12.0312C26.0623 8.96468 24.8441 6.02372 22.6757 3.85533C20.5073 1.68694 17.5664 0.46875 14.4998 0.46875C11.4332 0.46875 8.49226 1.68694 6.32387 3.85533C4.15548 6.02372 2.93729 8.96468 2.93729 12.0312C2.93729 17.139 1.74346 21.0471 0.941313 22.4288C0.73647 22.7801 0.627874 23.1792 0.626478 23.5858C0.625082 23.9924 0.730935 24.3923 0.933362 24.7449C1.13579 25.0976 1.42763 25.3907 1.77946 25.5945C2.13128 25.7984 2.53065 25.906 2.93729 25.9062H8.83561C9.10237 27.2116 9.81181 28.3847 10.8439 29.2273C11.876 30.0698 13.1675 30.53 14.4998 30.53C15.8321 30.53 17.1235 30.0698 18.1557 29.2273C19.1878 28.3847 19.8972 27.2116 20.164 25.9062H26.0623C26.4688 25.9057 26.868 25.798 27.2196 25.594C27.5712 25.39 27.8629 25.0969 28.0651 24.7443C28.2674 24.3917 28.3731 23.992 28.3717 23.5855C28.3702 23.1789 28.2616 22.78 28.0568 22.4288ZM14.4998 28.2188C13.7827 28.2185 13.0832 27.996 12.4977 27.5819C11.9123 27.1678 11.4695 26.5824 11.2305 25.9062H17.7691C17.53 26.5824 17.0873 27.1678 16.5018 27.5819C15.9164 27.996 15.2169 28.2185 14.4998 28.2188ZM2.93729 23.5938C4.05018 21.6802 5.24979 17.2459 5.24979 12.0312C5.24979 9.578 6.22434 7.22522 7.95905 5.49051C9.69376 3.7558 12.0465 2.78125 14.4998 2.78125C16.953 2.78125 19.3058 3.7558 21.0405 5.49051C22.7752 7.22522 23.7498 9.578 23.7498 12.0312C23.7498 17.2416 24.9465 21.6758 26.0623 23.5938H2.93729Z" fill="#313131"/>
</svg>
