<svg width="31" height="31" viewBox="0 0 31 31" fill="none" xmlns="http://www.w3.org/2000/svg">
<path d="M4.70833 15.5H1.625L15.5 1.625L29.375 15.5H26.2917M4.70833 15.5V26.2917C4.70833 27.1094 5.03318 27.8937 5.61142 28.4719C6.18966 29.0501 6.97392 29.375 7.79167 29.375H23.2083C24.0261 29.375 24.8103 29.0501 25.3886 28.4719C25.9668 27.8937 26.2917 27.1094 26.2917 26.2917V15.5" stroke="#313131" stroke-width="2" stroke-linecap="round" stroke-linejoin="round"/>
<path d="M10.875 29.375V20.125C10.875 19.3073 11.1999 18.523 11.7781 17.9448C12.3563 17.3665 13.1406 17.0417 13.9583 17.0417H17.0417C17.8594 17.0417 18.6437 17.3665 19.2219 17.9448C19.8001 18.523 20.125 19.3073 20.125 20.125V29.375" stroke="#313131" stroke-width="2" stroke-linecap="round" stroke-linejoin="round"/>
</svg>
