<svg width="35" height="35" viewBox="0 0 35 35" fill="none" xmlns="http://www.w3.org/2000/svg">
<path fill-rule="evenodd" clip-rule="evenodd" d="M17.5002 3.67743C17.4107 3.83313 17.3105 4.01197 17.1934 4.22318L17.0423 4.49451L17.0068 4.55618C16.8866 4.77818 16.6862 5.14509 16.3516 5.39947C16.0109 5.65847 15.5993 5.74788 15.3603 5.8003L15.2925 5.81418L14.9996 5.88047C14.7282 5.94213 14.5078 5.99147 14.3212 6.03926C14.443 6.1888 14.6018 6.37688 14.8084 6.61893L15.0088 6.85326L15.0551 6.90568C15.2216 7.09838 15.4898 7.40672 15.6147 7.80755C15.738 8.20222 15.6949 8.60922 15.6687 8.86514C15.6659 8.88927 15.6634 8.91343 15.661 8.93759L15.6301 9.25055C15.607 9.4868 15.5854 9.72319 15.5654 9.95972C15.7272 9.8888 15.9092 9.80555 16.1265 9.70534L16.4025 9.57893L16.4642 9.54809C16.6862 9.4448 17.07 9.26289 17.5002 9.26289C17.9303 9.26289 18.3142 9.4448 18.5362 9.54963L18.5978 9.57893L18.8738 9.70534C19.0896 9.80555 19.2746 9.89034 19.435 9.95972C19.4149 9.72319 19.3933 9.4868 19.3702 9.25055L19.3394 8.93759C19.3369 8.91343 19.3344 8.88927 19.3317 8.86514C19.3055 8.60768 19.2623 8.20222 19.3856 7.80755C19.509 7.40672 19.7787 7.09838 19.9452 6.90568L19.9915 6.85326L20.1919 6.61893C20.3985 6.37688 20.5573 6.1888 20.6791 6.03926C20.4925 5.99301 20.2721 5.94213 20.0007 5.88047L19.7078 5.81418L19.64 5.79876C19.401 5.74788 18.9894 5.65847 18.6487 5.39793C18.3142 5.14509 18.1137 4.77818 17.9935 4.55772L17.958 4.49451L17.807 4.22318C17.6898 4.01197 17.5911 3.83313 17.5002 3.67743ZM15.9801 1.77501C16.2452 1.42814 16.7262 0.927094 17.5002 0.927094C18.2741 0.927094 18.7551 1.42814 19.0202 1.77501C19.2746 2.10493 19.529 2.5628 19.7911 3.03301L19.8265 3.09622L19.9776 3.36909L20.0655 3.52326L20.2181 3.55872L20.511 3.62501L20.585 3.64043C21.0892 3.75605 21.5917 3.86859 21.9772 4.02122C22.4027 4.18926 22.9792 4.51455 23.2028 5.23143C23.4217 5.93288 23.1457 6.52797 22.9052 6.91184C22.6817 7.26643 22.3425 7.66109 21.9957 8.06655L21.9494 8.12051L21.749 8.35638L21.6226 8.50593C21.6257 8.56143 21.6334 8.62618 21.6411 8.71405L21.6719 9.02701L21.6781 9.09793C21.7305 9.64059 21.7814 10.1648 21.7629 10.5841C21.7444 11.025 21.6395 11.691 21.0414 12.1427C20.4247 12.6114 19.7464 12.5096 19.3147 12.3848C18.917 12.2722 18.4467 12.0548 17.9735 11.8375L17.9072 11.8066L17.6297 11.6787L17.5002 11.6186L17.3691 11.6802L17.0932 11.8066L17.0253 11.8375C16.5536 12.0548 16.0849 12.2722 15.6856 12.3848C15.254 12.5081 14.5756 12.6114 13.959 12.1427C13.3623 11.691 13.256 11.025 13.2375 10.5856C13.219 10.1648 13.2683 9.64059 13.3222 9.09793L13.3284 9.02701L13.3592 8.71405L13.3793 8.50593C13.337 8.4558 13.2943 8.40595 13.2513 8.35638L13.0509 8.12051L13.0047 8.06655C12.6578 7.66109 12.3186 7.26488 12.0951 6.9103C11.8546 6.52797 11.5786 5.93288 11.7975 5.22989C12.0195 4.51609 12.5977 4.18926 13.0232 4.02122C13.4086 3.86859 13.9112 3.75605 14.4153 3.64197L14.4877 3.62655L14.7822 3.55872L14.9364 3.52326L15.0227 3.36909L15.1738 3.09622L15.2092 3.03301C15.4713 2.5628 15.7257 2.10493 15.9801 1.77501ZM15.883 13.2604H19.1174C20.1426 13.2604 21.026 13.2604 21.7336 13.356C22.4921 13.4578 23.2182 13.6875 23.8071 14.2764C24.396 14.8653 24.6257 15.5914 24.7275 16.3499C24.8231 17.0576 24.8231 17.9409 24.8231 18.9661V22.7679C25.0759 22.6908 25.3365 22.6415 25.6001 22.606C26.3077 22.5104 27.1911 22.5104 28.2163 22.5104H28.3674C29.3926 22.5104 30.276 22.5104 30.9836 22.606C31.7421 22.7078 32.4682 22.9375 33.0571 23.5264C33.646 24.1153 33.8757 24.8414 33.9775 25.5999C34.0731 26.3076 34.0731 27.1909 34.0731 28.2161V32.9167C34.0731 33.2233 33.9513 33.5174 33.7344 33.7343C33.5176 33.9511 33.2235 34.0729 32.9168 34.0729C32.6102 34.0729 32.3161 33.9511 32.0992 33.7343C31.8824 33.5174 31.7606 33.2233 31.7606 32.9167V28.2917C31.7606 27.1693 31.7575 26.4417 31.6866 25.9083C31.6187 25.4072 31.5093 25.25 31.4214 25.1621C31.3335 25.0742 31.1763 24.9648 30.6752 24.8969C30.1403 24.826 29.4142 24.8229 28.2918 24.8229C27.1695 24.8229 26.4418 24.826 25.9084 24.8969C25.4074 24.9648 25.2501 25.0742 25.1622 25.1621C25.0744 25.25 24.9649 25.4072 24.8971 25.9083C24.8262 26.4432 24.8231 27.1693 24.8231 28.2917V32.9167C24.8231 33.2233 24.7013 33.5174 24.4844 33.7343C24.2676 33.9511 23.9735 34.0729 23.6668 34.0729C23.3602 34.0729 23.0661 33.9511 22.8492 33.7343C22.6324 33.5174 22.5106 33.2233 22.5106 32.9167V19.0417C22.5106 17.9193 22.5075 17.1917 22.4366 16.6583C22.3687 16.1572 22.2593 16 22.1714 15.9121C22.0835 15.8242 21.9263 15.7148 21.4252 15.6469C20.8903 15.576 20.1642 15.5729 19.0418 15.5729H15.9585C14.8362 15.5729 14.1085 15.576 13.5751 15.6469C13.074 15.7148 12.9168 15.8242 12.8289 15.9121C12.741 16 12.6316 16.1572 12.5637 16.6583C12.4928 17.1932 12.4897 17.9193 12.4897 19.0417V32.9167C12.4897 33.2233 12.3679 33.5174 12.1511 33.7343C11.9342 33.9511 11.6402 34.0729 11.3335 34.0729C11.0268 34.0729 10.7327 33.9511 10.5159 33.7343C10.2991 33.5174 10.1772 33.2233 10.1772 32.9167C10.1772 31.7943 10.1742 31.0667 10.1032 30.5333C10.0354 30.0322 9.92595 29.875 9.83808 29.7871C9.7502 29.6992 9.59295 29.5898 9.09191 29.5219C8.55695 29.451 7.83083 29.4479 6.7085 29.4479C5.58616 29.4479 4.8585 29.451 4.32508 29.5219C3.82404 29.5898 3.66679 29.6992 3.57891 29.7871C3.49104 29.875 3.38158 30.0322 3.31375 30.5333C3.24283 31.0682 3.23975 31.7943 3.23975 32.9167C3.23975 33.2233 3.11793 33.5174 2.90109 33.7343C2.68425 33.9511 2.39015 34.0729 2.0835 34.0729C1.77684 34.0729 1.48274 33.9511 1.2659 33.7343C1.04906 33.5174 0.927246 33.2233 0.927246 32.9167V32.8396C0.927246 31.8159 0.927246 30.9326 1.02283 30.2249C1.12458 29.4664 1.35429 28.7403 1.9432 28.1514C2.53212 27.5625 3.25979 27.3328 4.01675 27.231C4.72437 27.1354 5.60775 27.1354 6.63295 27.1354H6.78404C7.80925 27.1354 8.69262 27.1354 9.40025 27.231C9.66387 27.2665 9.92441 27.3173 10.1772 27.3929V18.9661C10.1772 17.9409 10.1772 17.0576 10.2728 16.3499C10.3746 15.5914 10.6043 14.8653 11.1932 14.2764C11.7821 13.6875 12.5098 13.4578 13.2667 13.356C13.9744 13.2604 14.8577 13.2604 15.883 13.2604Z" fill="black"/>
</svg>
